# MagicaVoxel @ Ephtracy

# group
g torch

# material
mtllib torch.mtl
usemtl palette

# normals
vn -1 0 0
vn 1 0 0
vn 0 0 1
vn 0 0 -1
vn 0 -1 0
vn 0 1 0

# texcoords
vt 0.205078 0.5
vt 0.373047 0.5
vt 0.978516 0.5

# verts
v -6 14 3
v -6 14 2
v -6 15 4
v -6 15 3
v -6 15 2
v -6 15 1
v -6 16 4
v -6 16 1
v -5 12 3
v -5 12 2
v -5 13 4
v -5 13 3
v -5 13 2
v -5 13 1
v -5 14 5
v -5 14 4
v -5 14 3
v -5 14 2
v -5 14 1
v -5 14 -0
v -5 15 4
v -5 15 3
v -5 15 2
v -5 15 1
v -5 16 5
v -5 16 4
v -5 16 1
v -5 16 -0
v -4 0 3
v -4 0 2
v -4 1 4
v -4 1 3
v -4 1 2
v -4 1 1
v -4 3 4
v -4 3 3
v -4 3 2
v -4 3 1
v -4 4 3
v -4 4 2
v -4 7 3
v -4 7 2
v -4 8 4
v -4 8 3
v -4 8 2
v -4 8 1
v -4 12 3
v -4 12 2
v -4 13 5
v -4 13 4
v -4 13 3
v -4 13 2
v -4 13 1
v -4 13 -0
v -4 14 5
v -4 14 4
v -4 14 1
v -4 14 -0
v -4 15 6
v -4 15 5
v -4 15 -0
v -4 15 -1
v -4 16 6
v -4 16 5
v -4 16 -0
v -4 16 -1
v -3 0 4
v -3 0 3
v -3 0 2
v -3 0 1
v -3 1 4
v -3 1 3
v -3 1 2
v -3 1 1
v -3 3 4
v -3 3 3
v -3 3 2
v -3 3 1
v -3 4 4
v -3 4 3
v -3 4 2
v -3 4 1
v -3 7 4
v -3 7 3
v -3 7 2
v -3 7 1
v -3 8 4
v -3 8 3
v -3 8 2
v -3 8 1
v -3 12 5
v -3 12 4
v -3 12 1
v -3 12 -0
v -3 13 5
v -3 13 4
v -3 13 1
v -3 13 -0
v -3 14 6
v -3 14 5
v -3 14 -0
v -3 14 -1
v -3 15 6
v -3 15 5
v -3 15 -0
v -3 15 -1
v -2 15 5
v -2 15 4
v -2 15 1
v -2 15 -0
v -2 16 5
v -2 16 4
v -2 16 1
v -2 16 -0
v -1 15 4
v -1 15 3
v -1 15 2
v -1 15 1
v -1 16 4
v -1 16 3
v -1 16 2
v -1 16 1
v 0 15 3
v 0 15 2
v 0 16 3
v 0 16 2
v -5 15 3
v -5 15 2
v -5 16 3
v -5 16 2
v -4 15 4
v -4 15 3
v -4 15 2
v -4 15 1
v -4 16 4
v -4 16 3
v -4 16 2
v -4 16 1
v -3 15 5
v -3 15 4
v -3 15 1
v -3 15 -0
v -3 16 5
v -3 16 4
v -3 16 1
v -3 16 -0
v -2 0 4
v -2 0 3
v -2 0 2
v -2 0 1
v -2 1 4
v -2 1 3
v -2 1 2
v -2 1 1
v -2 3 4
v -2 3 3
v -2 3 2
v -2 3 1
v -2 4 4
v -2 4 3
v -2 4 2
v -2 4 1
v -2 7 4
v -2 7 3
v -2 7 2
v -2 7 1
v -2 8 4
v -2 8 3
v -2 8 2
v -2 8 1
v -2 12 5
v -2 12 4
v -2 12 1
v -2 12 -0
v -2 13 5
v -2 13 4
v -2 13 1
v -2 13 -0
v -2 14 6
v -2 14 5
v -2 14 -0
v -2 14 -1
v -2 15 6
v -2 15 5
v -2 15 -0
v -2 15 -1
v -1 0 3
v -1 0 2
v -1 1 4
v -1 1 3
v -1 1 2
v -1 1 1
v -1 3 4
v -1 3 3
v -1 3 2
v -1 3 1
v -1 4 3
v -1 4 2
v -1 7 3
v -1 7 2
v -1 8 4
v -1 8 3
v -1 8 2
v -1 8 1
v -1 12 3
v -1 12 2
v -1 13 5
v -1 13 4
v -1 13 3
v -1 13 2
v -1 13 1
v -1 13 -0
v -1 14 5
v -1 14 4
v -1 14 1
v -1 14 -0
v -1 15 6
v -1 15 5
v -1 15 -0
v -1 15 -1
v -1 16 6
v -1 16 5
v -1 16 -0
v -1 16 -1
v 0 12 3
v 0 12 2
v 0 13 4
v 0 13 3
v 0 13 2
v 0 13 1
v 0 14 5
v 0 14 4
v 0 14 3
v 0 14 2
v 0 14 1
v 0 14 -0
v 0 15 4
v 0 15 3
v 0 15 2
v 0 15 1
v 0 16 5
v 0 16 4
v 0 16 1
v 0 16 -0
v 1 14 3
v 1 14 2
v 1 15 4
v 1 15 3
v 1 15 2
v 1 15 1
v 1 16 4
v 1 16 1
v -4 15 6
v -4 16 6
v -3 14 6
v -3 15 6
v -2 14 6
v -2 15 6
v -1 15 6
v -1 16 6
v -5 14 5
v -5 16 5
v -4 13 5
v -4 14 5
v -4 15 5
v -4 16 5
v -3 12 5
v -3 13 5
v -3 14 5
v -3 15 5
v -2 12 5
v -2 13 5
v -2 14 5
v -2 15 5
v -1 13 5
v -1 14 5
v -1 15 5
v -1 16 5
v 0 14 5
v 0 16 5
v -6 15 4
v -6 16 4
v -5 13 4
v -5 14 4
v -5 15 4
v -5 16 4
v -4 1 4
v -4 3 4
v -4 8 4
v -4 13 4
v -4 14 4
v -3 0 4
v -3 1 4
v -3 3 4
v -3 4 4
v -3 7 4
v -3 8 4
v -3 12 4
v -3 13 4
v -2 0 4
v -2 1 4
v -2 3 4
v -2 4 4
v -2 7 4
v -2 8 4
v -2 12 4
v -2 13 4
v -1 1 4
v -1 3 4
v -1 8 4
v -1 13 4
v -1 14 4
v 0 13 4
v 0 14 4
v 0 15 4
v 0 16 4
v 1 15 4
v 1 16 4
v -6 14 3
v -6 15 3
v -5 12 3
v -5 13 3
v -5 14 3
v -5 15 3
v -4 0 3
v -4 1 3
v -4 3 3
v -4 4 3
v -4 7 3
v -4 8 3
v -4 12 3
v -4 13 3
v -3 0 3
v -3 1 3
v -3 3 3
v -3 4 3
v -3 7 3
v -3 8 3
v -2 0 3
v -2 1 3
v -2 3 3
v -2 4 3
v -2 7 3
v -2 8 3
v -1 0 3
v -1 1 3
v -1 3 3
v -1 4 3
v -1 7 3
v -1 8 3
v -1 12 3
v -1 13 3
v 0 12 3
v 0 13 3
v 0 14 3
v 0 15 3
v 1 14 3
v 1 15 3
v -5 15 2
v -5 16 2
v -4 15 2
v -4 16 2
v -1 15 2
v -1 16 2
v 0 15 2
v 0 16 2
v -4 15 1
v -4 16 1
v -3 15 1
v -3 16 1
v -2 15 1
v -2 16 1
v -1 15 1
v -1 16 1
v -3 15 -0
v -3 16 -0
v -2 15 -0
v -2 16 -0
v -3 15 5
v -3 16 5
v -2 15 5
v -2 16 5
v -4 15 4
v -4 16 4
v -3 15 4
v -3 16 4
v -2 15 4
v -2 16 4
v -1 15 4
v -1 16 4
v -5 15 3
v -5 16 3
v -4 15 3
v -4 16 3
v -1 15 3
v -1 16 3
v 0 15 3
v 0 16 3
v -6 14 2
v -6 15 2
v -5 12 2
v -5 13 2
v -5 14 2
v -5 15 2
v -4 0 2
v -4 1 2
v -4 3 2
v -4 4 2
v -4 7 2
v -4 8 2
v -4 12 2
v -4 13 2
v -3 0 2
v -3 1 2
v -3 3 2
v -3 4 2
v -3 7 2
v -3 8 2
v -2 0 2
v -2 1 2
v -2 3 2
v -2 4 2
v -2 7 2
v -2 8 2
v -1 0 2
v -1 1 2
v -1 3 2
v -1 4 2
v -1 7 2
v -1 8 2
v -1 12 2
v -1 13 2
v 0 12 2
v 0 13 2
v 0 14 2
v 0 15 2
v 1 14 2
v 1 15 2
v -6 15 1
v -6 16 1
v -5 13 1
v -5 14 1
v -5 15 1
v -5 16 1
v -4 1 1
v -4 3 1
v -4 8 1
v -4 13 1
v -4 14 1
v -3 0 1
v -3 1 1
v -3 3 1
v -3 4 1
v -3 7 1
v -3 8 1
v -3 12 1
v -3 13 1
v -2 0 1
v -2 1 1
v -2 3 1
v -2 4 1
v -2 7 1
v -2 8 1
v -2 12 1
v -2 13 1
v -1 1 1
v -1 3 1
v -1 8 1
v -1 13 1
v -1 14 1
v 0 13 1
v 0 14 1
v 0 15 1
v 0 16 1
v 1 15 1
v 1 16 1
v -5 14 -0
v -5 16 -0
v -4 13 -0
v -4 14 -0
v -4 15 -0
v -4 16 -0
v -3 12 -0
v -3 13 -0
v -3 14 -0
v -3 15 -0
v -2 12 -0
v -2 13 -0
v -2 14 -0
v -2 15 -0
v -1 13 -0
v -1 14 -0
v -1 15 -0
v -1 16 -0
v 0 14 -0
v 0 16 -0
v -4 15 -1
v -4 16 -1
v -3 14 -1
v -3 15 -1
v -2 14 -1
v -2 15 -1
v -1 15 -1
v -1 16 -1
v -3 0 4
v -2 0 4
v -4 0 3
v -3 0 3
v -2 0 3
v -1 0 3
v -4 0 2
v -3 0 2
v -2 0 2
v -1 0 2
v -3 0 1
v -2 0 1
v -4 1 4
v -3 1 4
v -2 1 4
v -1 1 4
v -4 1 3
v -3 1 3
v -2 1 3
v -1 1 3
v -4 1 2
v -3 1 2
v -2 1 2
v -1 1 2
v -4 1 1
v -3 1 1
v -2 1 1
v -1 1 1
v -4 8 4
v -3 8 4
v -2 8 4
v -1 8 4
v -4 8 3
v -3 8 3
v -2 8 3
v -1 8 3
v -4 8 2
v -3 8 2
v -2 8 2
v -1 8 2
v -4 8 1
v -3 8 1
v -2 8 1
v -1 8 1
v -3 12 5
v -2 12 5
v -3 12 4
v -2 12 4
v -5 12 3
v -4 12 3
v -1 12 3
v 0 12 3
v -5 12 2
v -4 12 2
v -1 12 2
v 0 12 2
v -3 12 1
v -2 12 1
v -3 12 -0
v -2 12 -0
v -4 13 5
v -3 13 5
v -2 13 5
v -1 13 5
v -5 13 4
v -4 13 4
v -3 13 4
v -2 13 4
v -1 13 4
v 0 13 4
v -5 13 3
v -4 13 3
v -1 13 3
v 0 13 3
v -5 13 2
v -4 13 2
v -1 13 2
v 0 13 2
v -5 13 1
v -4 13 1
v -3 13 1
v -2 13 1
v -1 13 1
v 0 13 1
v -4 13 -0
v -3 13 -0
v -2 13 -0
v -1 13 -0
v -3 14 6
v -2 14 6
v -5 14 5
v -4 14 5
v -3 14 5
v -2 14 5
v -1 14 5
v 0 14 5
v -5 14 4
v -4 14 4
v -1 14 4
v 0 14 4
v -6 14 3
v -5 14 3
v 0 14 3
v 1 14 3
v -6 14 2
v -5 14 2
v 0 14 2
v 1 14 2
v -5 14 1
v -4 14 1
v -1 14 1
v 0 14 1
v -5 14 -0
v -4 14 -0
v -3 14 -0
v -2 14 -0
v -1 14 -0
v 0 14 -0
v -3 14 -1
v -2 14 -1
v -4 15 6
v -3 15 6
v -2 15 6
v -1 15 6
v -4 15 5
v -3 15 5
v -2 15 5
v -1 15 5
v -6 15 4
v -5 15 4
v 0 15 4
v 1 15 4
v -6 15 3
v -5 15 3
v 0 15 3
v 1 15 3
v -6 15 2
v -5 15 2
v 0 15 2
v 1 15 2
v -6 15 1
v -5 15 1
v 0 15 1
v 1 15 1
v -4 15 -0
v -3 15 -0
v -2 15 -0
v -1 15 -0
v -4 15 -1
v -3 15 -1
v -2 15 -1
v -1 15 -1
v -4 3 4
v -3 3 4
v -2 3 4
v -1 3 4
v -4 3 3
v -3 3 3
v -2 3 3
v -1 3 3
v -4 3 2
v -3 3 2
v -2 3 2
v -1 3 2
v -4 3 1
v -3 3 1
v -2 3 1
v -1 3 1
v -3 15 5
v -2 15 5
v -4 15 4
v -3 15 4
v -2 15 4
v -1 15 4
v -5 15 3
v -4 15 3
v -1 15 3
v 0 15 3
v -5 15 2
v -4 15 2
v -1 15 2
v 0 15 2
v -4 15 1
v -3 15 1
v -2 15 1
v -1 15 1
v -3 15 -0
v -2 15 -0
v -4 16 6
v -1 16 6
v -5 16 5
v -4 16 5
v -3 16 5
v -2 16 5
v -1 16 5
v 0 16 5
v -6 16 4
v -5 16 4
v -4 16 4
v -3 16 4
v -2 16 4
v -1 16 4
v 0 16 4
v 1 16 4
v -5 16 3
v -4 16 3
v -1 16 3
v 0 16 3
v -5 16 2
v -4 16 2
v -1 16 2
v 0 16 2
v -6 16 1
v -5 16 1
v -4 16 1
v -3 16 1
v -2 16 1
v -1 16 1
v 0 16 1
v 1 16 1
v -5 16 -0
v -4 16 -0
v -3 16 -0
v -2 16 -0
v -1 16 -0
v 0 16 -0
v -4 16 -1
v -1 16 -1

# faces
f 4/3/1 2/3/1 1/3/1
f 5/3/1 2/3/1 4/3/1
f 7/3/1 4/3/1 3/3/1
f 7/3/1 6/3/1 5/3/1
f 7/3/1 5/3/1 4/3/1
f 8/3/1 6/3/1 7/3/1
f 12/3/1 10/3/1 9/3/1
f 13/3/1 10/3/1 12/3/1
f 16/3/1 12/3/1 11/3/1
f 16/3/1 14/3/1 13/3/1
f 16/3/1 13/3/1 12/3/1
f 17/3/1 14/3/1 16/3/1
f 18/3/1 14/3/1 17/3/1
f 19/3/1 14/3/1 18/3/1
f 21/3/1 16/3/1 15/3/1
f 21/3/1 17/3/1 16/3/1
f 22/3/1 17/3/1 21/3/1
f 23/3/1 20/3/1 19/3/1
f 23/3/1 19/3/1 18/3/1
f 24/3/1 20/3/1 23/3/1
f 25/3/1 21/3/1 15/3/1
f 26/3/1 21/3/1 25/3/1
f 27/3/1 20/3/1 24/3/1
f 28/3/1 20/3/1 27/3/1
f 32/3/1 30/3/1 29/3/1
f 33/3/1 30/3/1 32/3/1
f 35/2/1 32/2/1 31/2/1
f 35/2/1 34/2/1 33/2/1
f 35/2/1 33/2/1 32/2/1
f 36/2/1 34/2/1 35/2/1
f 37/2/1 34/2/1 36/2/1
f 38/2/1 34/2/1 37/2/1
f 39/2/1 37/2/1 36/2/1
f 40/2/1 37/2/1 39/2/1
f 41/1/1 40/1/1 39/1/1
f 42/1/1 40/1/1 41/1/1
f 44/2/1 42/2/1 41/2/1
f 45/2/1 42/2/1 44/2/1
f 47/2/1 45/2/1 44/2/1
f 47/2/1 46/2/1 45/2/1
f 47/2/1 44/2/1 43/2/1
f 48/2/1 46/2/1 47/2/1
f 50/2/1 47/2/1 43/2/1
f 51/2/1 47/2/1 50/2/1
f 52/2/1 46/2/1 48/2/1
f 53/2/1 46/2/1 52/2/1
f 55/3/1 50/3/1 49/3/1
f 56/3/1 50/3/1 55/3/1
f 57/3/1 54/3/1 53/3/1
f 58/3/1 54/3/1 57/3/1
f 63/3/1 60/3/1 59/3/1
f 64/3/1 60/3/1 63/3/1
f 65/3/1 62/3/1 61/3/1
f 66/3/1 62/3/1 65/3/1
f 71/3/1 68/3/1 67/3/1
f 72/3/1 68/3/1 71/3/1
f 73/3/1 70/3/1 69/3/1
f 74/3/1 70/3/1 73/3/1
f 79/2/1 76/2/1 75/2/1
f 80/2/1 76/2/1 79/2/1
f 81/2/1 78/2/1 77/2/1
f 82/2/1 78/2/1 81/2/1
f 83/1/1 80/1/1 79/1/1
f 84/1/1 80/1/1 83/1/1
f 85/1/1 82/1/1 81/1/1
f 86/1/1 82/1/1 85/1/1
f 87/2/1 84/2/1 83/2/1
f 88/2/1 84/2/1 87/2/1
f 89/2/1 86/2/1 85/2/1
f 90/2/1 86/2/1 89/2/1
f 95/3/1 92/3/1 91/3/1
f 96/3/1 92/3/1 95/3/1
f 97/3/1 94/3/1 93/3/1
f 98/3/1 94/3/1 97/3/1
f 103/3/1 100/3/1 99/3/1
f 104/3/1 100/3/1 103/3/1
f 105/3/1 102/3/1 101/3/1
f 106/3/1 102/3/1 105/3/1
f 111/3/1 108/3/1 107/3/1
f 112/3/1 108/3/1 111/3/1
f 113/3/1 110/3/1 109/3/1
f 114/3/1 110/3/1 113/3/1
f 119/3/1 116/3/1 115/3/1
f 120/3/1 116/3/1 119/3/1
f 121/3/1 118/3/1 117/3/1
f 122/3/1 118/3/1 121/3/1
f 125/3/1 124/3/1 123/3/1
f 126/3/1 124/3/1 125/3/1
f 127/3/2 128/3/2 129/3/2
f 129/3/2 128/3/2 130/3/2
f 131/3/2 132/3/2 135/3/2
f 135/3/2 132/3/2 136/3/2
f 133/3/2 134/3/2 137/3/2
f 137/3/2 134/3/2 138/3/2
f 139/3/2 140/3/2 143/3/2
f 143/3/2 140/3/2 144/3/2
f 141/3/2 142/3/2 145/3/2
f 145/3/2 142/3/2 146/3/2
f 147/3/2 148/3/2 151/3/2
f 151/3/2 148/3/2 152/3/2
f 149/3/2 150/3/2 153/3/2
f 153/3/2 150/3/2 154/3/2
f 155/2/2 156/2/2 159/2/2
f 159/2/2 156/2/2 160/2/2
f 157/2/2 158/2/2 161/2/2
f 161/2/2 158/2/2 162/2/2
f 159/1/2 160/1/2 163/1/2
f 163/1/2 160/1/2 164/1/2
f 161/1/2 162/1/2 165/1/2
f 165/1/2 162/1/2 166/1/2
f 163/2/2 164/2/2 167/2/2
f 167/2/2 164/2/2 168/2/2
f 165/2/2 166/2/2 169/2/2
f 169/2/2 166/2/2 170/2/2
f 171/3/2 172/3/2 175/3/2
f 175/3/2 172/3/2 176/3/2
f 173/3/2 174/3/2 177/3/2
f 177/3/2 174/3/2 178/3/2
f 179/3/2 180/3/2 183/3/2
f 183/3/2 180/3/2 184/3/2
f 181/3/2 182/3/2 185/3/2
f 185/3/2 182/3/2 186/3/2
f 187/3/2 188/3/2 190/3/2
f 190/3/2 188/3/2 191/3/2
f 189/2/2 190/2/2 193/2/2
f 191/2/2 192/2/2 193/2/2
f 190/2/2 191/2/2 193/2/2
f 193/2/2 192/2/2 194/2/2
f 194/2/2 192/2/2 195/2/2
f 195/2/2 192/2/2 196/2/2
f 194/2/2 195/2/2 197/2/2
f 197/2/2 195/2/2 198/2/2
f 197/1/2 198/1/2 199/1/2
f 199/1/2 198/1/2 200/1/2
f 199/2/2 200/2/2 202/2/2
f 202/2/2 200/2/2 203/2/2
f 202/2/2 203/2/2 205/2/2
f 203/2/2 204/2/2 205/2/2
f 201/2/2 202/2/2 205/2/2
f 205/2/2 204/2/2 206/2/2
f 201/2/2 205/2/2 208/2/2
f 208/2/2 205/2/2 209/2/2
f 206/2/2 204/2/2 210/2/2
f 210/2/2 204/2/2 211/2/2
f 207/3/2 208/3/2 213/3/2
f 213/3/2 208/3/2 214/3/2
f 211/3/2 212/3/2 215/3/2
f 215/3/2 212/3/2 216/3/2
f 217/3/2 218/3/2 221/3/2
f 221/3/2 218/3/2 222/3/2
f 219/3/2 220/3/2 223/3/2
f 223/3/2 220/3/2 224/3/2
f 225/3/2 226/3/2 228/3/2
f 228/3/2 226/3/2 229/3/2
f 227/3/2 228/3/2 232/3/2
f 229/3/2 230/3/2 232/3/2
f 228/3/2 229/3/2 232/3/2
f 232/3/2 230/3/2 233/3/2
f 233/3/2 230/3/2 234/3/2
f 234/3/2 230/3/2 235/3/2
f 231/3/2 232/3/2 237/3/2
f 232/3/2 233/3/2 237/3/2
f 237/3/2 233/3/2 238/3/2
f 235/3/2 236/3/2 239/3/2
f 234/3/2 235/3/2 239/3/2
f 239/3/2 236/3/2 240/3/2
f 231/3/2 237/3/2 241/3/2
f 241/3/2 237/3/2 242/3/2
f 240/3/2 236/3/2 243/3/2
f 243/3/2 236/3/2 244/3/2
f 245/3/2 246/3/2 248/3/2
f 248/3/2 246/3/2 249/3/2
f 247/3/2 248/3/2 251/3/2
f 249/3/2 250/3/2 251/3/2
f 248/3/2 249/3/2 251/3/2
f 251/3/2 250/3/2 252/3/2
f 256/3/3 254/3/3 253/3/3
f 257/3/3 256/3/3 255/3/3
f 258/3/3 254/3/3 256/3/3
f 258/3/3 256/3/3 257/3/3
f 259/3/3 254/3/3 258/3/3
f 260/3/3 254/3/3 259/3/3
f 264/3/3 262/3/3 261/3/3
f 265/3/3 262/3/3 264/3/3
f 266/3/3 262/3/3 265/3/3
f 268/3/3 264/3/3 263/3/3
f 268/3/3 265/3/3 264/3/3
f 269/3/3 265/3/3 268/3/3
f 270/3/3 265/3/3 269/3/3
f 271/3/3 268/3/3 267/3/3
f 271/3/3 269/3/3 268/3/3
f 272/3/3 269/3/3 271/3/3
f 273/3/3 269/3/3 272/3/3
f 275/3/3 274/3/3 273/3/3
f 275/3/3 273/3/3 272/3/3
f 276/3/3 274/3/3 275/3/3
f 277/3/3 274/3/3 276/3/3
f 279/3/3 277/3/3 276/3/3
f 279/3/3 278/3/3 277/3/3
f 280/3/3 278/3/3 279/3/3
f 285/3/3 282/3/3 281/3/3
f 286/3/3 282/3/3 285/3/3
f 290/3/3 284/3/3 283/3/3
f 291/3/3 284/3/3 290/3/3
f 293/2/3 288/2/3 287/2/3
f 294/2/3 288/2/3 293/2/3
f 297/2/3 290/2/3 289/2/3
f 298/2/3 290/2/3 297/2/3
f 299/2/3 290/2/3 298/2/3
f 300/3/3 293/3/3 292/3/3
f 301/2/3 294/2/3 293/2/3
f 301/3/3 293/3/3 300/3/3
f 301/2/3 295/2/3 294/2/3
f 302/2/3 295/2/3 301/2/3
f 303/1/3 296/1/3 295/1/3
f 303/2/3 295/2/3 302/2/3
f 304/2/3 298/2/3 297/2/3
f 304/1/3 296/1/3 303/1/3
f 304/2/3 297/2/3 296/2/3
f 305/2/3 298/2/3 304/2/3
f 306/2/3 298/2/3 305/2/3
f 308/2/3 302/2/3 301/2/3
f 309/2/3 302/2/3 308/2/3
f 310/2/3 307/2/3 306/2/3
f 310/2/3 306/2/3 305/2/3
f 311/2/3 307/2/3 310/2/3
f 313/3/3 312/3/3 311/3/3
f 314/3/3 312/3/3 313/3/3
f 317/3/3 316/3/3 315/3/3
f 318/3/3 316/3/3 317/3/3
f 323/3/3 320/3/3 319/3/3
f 324/3/3 320/3/3 323/3/3
f 331/3/3 322/3/3 321/3/3
f 332/3/3 322/3/3 331/3/3
f 333/3/3 326/3/3 325/3/3
f 334/3/3 326/3/3 333/3/3
f 335/2/3 328/2/3 327/2/3
f 336/1/3 329/1/3 328/1/3
f 336/2/3 328/2/3 335/2/3
f 337/2/3 330/2/3 329/2/3
f 337/1/3 329/1/3 336/1/3
f 338/2/3 330/2/3 337/2/3
f 345/3/3 340/3/3 339/3/3
f 346/3/3 340/3/3 345/3/3
f 347/2/3 342/2/3 341/2/3
f 348/1/3 343/1/3 342/1/3
f 348/2/3 342/2/3 347/2/3
f 349/2/3 344/2/3 343/2/3
f 349/1/3 343/1/3 348/1/3
f 350/2/3 344/2/3 349/2/3
f 353/3/3 352/3/3 351/3/3
f 354/3/3 352/3/3 353/3/3
f 357/3/3 356/3/3 355/3/3
f 358/3/3 356/3/3 357/3/3
f 361/3/3 360/3/3 359/3/3
f 362/3/3 360/3/3 361/3/3
f 365/3/3 364/3/3 363/3/3
f 366/3/3 364/3/3 365/3/3
f 369/3/3 368/3/3 367/3/3
f 370/3/3 368/3/3 369/3/3
f 373/3/3 372/3/3 371/3/3
f 374/3/3 372/3/3 373/3/3
f 377/3/3 376/3/3 375/3/3
f 378/3/3 376/3/3 377/3/3
f 379/3/4 380/3/4 381/3/4
f 381/3/4 380/3/4 382/3/4
f 383/3/4 384/3/4 385/3/4
f 385/3/4 384/3/4 386/3/4
f 387/3/4 388/3/4 389/3/4
f 389/3/4 388/3/4 390/3/4
f 391/3/4 392/3/4 393/3/4
f 393/3/4 392/3/4 394/3/4
f 395/3/4 396/3/4 397/3/4
f 397/3/4 396/3/4 398/3/4
f 399/3/4 400/3/4 403/3/4
f 403/3/4 400/3/4 404/3/4
f 401/3/4 402/3/4 411/3/4
f 411/3/4 402/3/4 412/3/4
f 405/3/4 406/3/4 413/3/4
f 413/3/4 406/3/4 414/3/4
f 407/2/4 408/2/4 415/2/4
f 408/1/4 409/1/4 416/1/4
f 415/2/4 408/2/4 416/2/4
f 409/2/4 410/2/4 417/2/4
f 416/1/4 409/1/4 417/1/4
f 417/2/4 410/2/4 418/2/4
f 419/3/4 420/3/4 425/3/4
f 425/3/4 420/3/4 426/3/4
f 421/2/4 422/2/4 427/2/4
f 422/1/4 423/1/4 428/1/4
f 427/2/4 422/2/4 428/2/4
f 423/2/4 424/2/4 429/2/4
f 428/1/4 423/1/4 429/1/4
f 429/2/4 424/2/4 430/2/4
f 431/3/4 432/3/4 433/3/4
f 433/3/4 432/3/4 434/3/4
f 435/3/4 436/3/4 437/3/4
f 437/3/4 436/3/4 438/3/4
f 439/3/4 440/3/4 443/3/4
f 443/3/4 440/3/4 444/3/4
f 441/3/4 442/3/4 448/3/4
f 448/3/4 442/3/4 449/3/4
f 445/2/4 446/2/4 451/2/4
f 451/2/4 446/2/4 452/2/4
f 447/2/4 448/2/4 455/2/4
f 455/2/4 448/2/4 456/2/4
f 456/2/4 448/2/4 457/2/4
f 450/3/4 451/3/4 458/3/4
f 451/2/4 452/2/4 459/2/4
f 458/3/4 451/3/4 459/3/4
f 452/2/4 453/2/4 459/2/4
f 459/2/4 453/2/4 460/2/4
f 453/1/4 454/1/4 461/1/4
f 460/2/4 453/2/4 461/2/4
f 455/2/4 456/2/4 462/2/4
f 461/1/4 454/1/4 462/1/4
f 454/2/4 455/2/4 462/2/4
f 462/2/4 456/2/4 463/2/4
f 463/2/4 456/2/4 464/2/4
f 459/2/4 460/2/4 466/2/4
f 466/2/4 460/2/4 467/2/4
f 464/2/4 465/2/4 468/2/4
f 463/2/4 464/2/4 468/2/4
f 468/2/4 465/2/4 469/2/4
f 469/3/4 470/3/4 471/3/4
f 471/3/4 470/3/4 472/3/4
f 473/3/4 474/3/4 475/3/4
f 475/3/4 474/3/4 476/3/4
f 477/3/4 478/3/4 480/3/4
f 480/3/4 478/3/4 481/3/4
f 481/3/4 478/3/4 482/3/4
f 479/3/4 480/3/4 484/3/4
f 480/3/4 481/3/4 484/3/4
f 484/3/4 481/3/4 485/3/4
f 485/3/4 481/3/4 486/3/4
f 483/3/4 484/3/4 487/3/4
f 484/3/4 485/3/4 487/3/4
f 487/3/4 485/3/4 488/3/4
f 488/3/4 485/3/4 489/3/4
f 489/3/4 490/3/4 491/3/4
f 488/3/4 489/3/4 491/3/4
f 491/3/4 490/3/4 492/3/4
f 492/3/4 490/3/4 493/3/4
f 492/3/4 493/3/4 495/3/4
f 493/3/4 494/3/4 495/3/4
f 495/3/4 494/3/4 496/3/4
f 497/3/4 498/3/4 500/3/4
f 499/3/4 500/3/4 501/3/4
f 500/3/4 498/3/4 502/3/4
f 501/3/4 500/3/4 502/3/4
f 502/3/4 498/3/4 503/3/4
f 503/3/4 498/3/4 504/3/4
f 508/3/5 506/3/5 505/3/5
f 509/3/5 506/3/5 508/3/5
f 511/3/5 508/3/5 507/3/5
f 512/2/5 509/2/5 508/2/5
f 512/3/5 508/3/5 511/3/5
f 513/3/5 510/3/5 509/3/5
f 513/2/5 509/2/5 512/2/5
f 514/3/5 510/3/5 513/3/5
f 515/3/5 513/3/5 512/3/5
f 516/3/5 513/3/5 515/3/5
f 521/2/5 518/2/5 517/2/5
f 522/2/5 518/2/5 521/2/5
f 523/2/5 520/2/5 519/2/5
f 524/2/5 520/2/5 523/2/5
f 529/2/5 526/2/5 525/2/5
f 530/2/5 526/2/5 529/2/5
f 531/2/5 528/2/5 527/2/5
f 532/2/5 528/2/5 531/2/5
f 537/2/5 534/2/5 533/2/5
f 538/2/5 534/2/5 537/2/5
f 539/2/5 536/2/5 535/2/5
f 540/2/5 536/2/5 539/2/5
f 545/2/5 542/2/5 541/2/5
f 546/2/5 542/2/5 545/2/5
f 547/2/5 544/2/5 543/2/5
f 548/2/5 544/2/5 547/2/5
f 551/3/5 550/3/5 549/3/5
f 552/3/5 550/3/5 551/3/5
f 557/3/5 554/3/5 553/3/5
f 558/3/5 554/3/5 557/3/5
f 559/3/5 556/3/5 555/3/5
f 560/3/5 556/3/5 559/3/5
f 563/3/5 562/3/5 561/3/5
f 564/3/5 562/3/5 563/3/5
f 570/3/5 566/3/5 565/3/5
f 571/3/5 566/3/5 570/3/5
f 572/3/5 568/3/5 567/3/5
f 573/3/5 568/3/5 572/3/5
f 575/3/5 570/3/5 569/3/5
f 576/3/5 570/3/5 575/3/5
f 577/3/5 574/3/5 573/3/5
f 578/3/5 574/3/5 577/3/5
f 583/3/5 580/3/5 579/3/5
f 584/3/5 580/3/5 583/3/5
f 587/3/5 582/3/5 581/3/5
f 588/3/5 582/3/5 587/3/5
f 589/3/5 585/3/5 584/3/5
f 590/3/5 585/3/5 589/3/5
f 591/3/5 587/3/5 586/3/5
f 592/3/5 587/3/5 591/3/5
f 597/3/5 594/3/5 593/3/5
f 598/3/5 594/3/5 597/3/5
f 601/3/5 596/3/5 595/3/5
f 602/3/5 596/3/5 601/3/5
f 603/3/5 600/3/5 599/3/5
f 604/3/5 600/3/5 603/3/5
f 609/3/5 606/3/5 605/3/5
f 610/3/5 606/3/5 609/3/5
f 611/3/5 608/3/5 607/3/5
f 612/3/5 608/3/5 611/3/5
f 617/3/5 614/3/5 613/3/5
f 618/3/5 614/3/5 617/3/5
f 621/3/5 616/3/5 615/3/5
f 622/3/5 616/3/5 621/3/5
f 623/3/5 620/3/5 619/3/5
f 624/3/5 620/3/5 623/3/5
f 629/3/5 626/3/5 625/3/5
f 630/3/5 626/3/5 629/3/5
f 631/3/5 628/3/5 627/3/5
f 632/3/5 628/3/5 631/3/5
f 637/3/5 634/3/5 633/3/5
f 638/3/5 634/3/5 637/3/5
f 639/3/5 636/3/5 635/3/5
f 640/3/5 636/3/5 639/3/5
f 645/3/5 642/3/5 641/3/5
f 646/3/5 642/3/5 645/3/5
f 647/3/5 644/3/5 643/3/5
f 648/3/5 644/3/5 647/3/5
f 653/3/5 650/3/5 649/3/5
f 654/3/5 650/3/5 653/3/5
f 655/3/5 652/3/5 651/3/5
f 656/3/5 652/3/5 655/3/5
f 657/2/6 658/2/6 661/2/6
f 661/2/6 658/2/6 662/2/6
f 659/2/6 660/2/6 663/2/6
f 663/2/6 660/2/6 664/2/6
f 665/2/6 666/2/6 669/2/6
f 669/2/6 666/2/6 670/2/6
f 667/2/6 668/2/6 671/2/6
f 671/2/6 668/2/6 672/2/6
f 673/3/6 674/3/6 676/3/6
f 676/3/6 674/3/6 677/3/6
f 675/3/6 676/3/6 680/3/6
f 677/3/6 678/3/6 680/3/6
f 676/3/6 677/3/6 680/3/6
f 680/3/6 678/3/6 681/3/6
f 679/3/6 680/3/6 683/3/6
f 681/3/6 682/3/6 683/3/6
f 680/3/6 681/3/6 683/3/6
f 683/3/6 682/3/6 684/3/6
f 684/3/6 682/3/6 685/3/6
f 685/3/6 682/3/6 686/3/6
f 684/3/6 685/3/6 687/3/6
f 687/3/6 685/3/6 688/3/6
f 688/3/6 685/3/6 689/3/6
f 689/3/6 685/3/6 690/3/6
f 688/3/6 689/3/6 691/3/6
f 691/3/6 689/3/6 692/3/6
f 693/3/6 694/3/6 696/3/6
f 696/3/6 694/3/6 697/3/6
f 697/3/6 694/3/6 698/3/6
f 698/3/6 694/3/6 699/3/6
f 695/3/6 696/3/6 702/3/6
f 696/3/6 697/3/6 702/3/6
f 702/3/6 697/3/6 703/3/6
f 703/3/6 697/3/6 704/3/6
f 698/3/6 699/3/6 705/3/6
f 699/3/6 700/3/6 705/3/6
f 705/3/6 700/3/6 706/3/6
f 706/3/6 700/3/6 707/3/6
f 702/3/6 703/3/6 709/3/6
f 701/3/6 702/3/6 709/3/6
f 709/3/6 703/3/6 710/3/6
f 707/3/6 708/3/6 711/3/6
f 706/3/6 707/3/6 711/3/6
f 711/3/6 708/3/6 712/3/6
f 701/3/6 709/3/6 713/3/6
f 712/3/6 708/3/6 716/3/6
f 713/3/6 714/3/6 717/3/6
f 701/3/6 713/3/6 717/3/6
f 717/3/6 714/3/6 718/3/6
f 718/3/6 714/3/6 719/3/6
f 715/3/6 716/3/6 722/3/6
f 716/3/6 708/3/6 723/3/6
f 722/3/6 716/3/6 723/3/6
f 723/3/6 708/3/6 724/3/6
f 719/3/6 720/3/6 725/3/6
f 718/3/6 719/3/6 725/3/6
f 725/3/6 720/3/6 726/3/6
f 726/3/6 720/3/6 727/3/6
f 721/3/6 722/3/6 728/3/6
f 722/3/6 723/3/6 728/3/6
f 728/3/6 723/3/6 729/3/6
f 729/3/6 723/3/6 730/3/6
f 726/3/6 727/3/6 731/3/6
f 728/3/6 729/3/6 731/3/6
f 727/3/6 728/3/6 731/3/6
f 731/3/6 729/3/6 732/3/6
