# MagicaVoxel @ Ephtracy

# group
g pickaxe2

# material
mtllib pickaxe2.mtl
usemtl palette

# normals
vn -1 0 0
vn 1 0 0
vn 0 0 1
vn 0 0 -1
vn 0 -1 0
vn 0 1 0

# texcoords
vt 0.205078 0.5
vt 0.978516 0.5

# verts
v -12 25 1
v -12 25 -0
v -12 26 1
v -12 26 -0
v -11 25 2
v -11 25 1
v -11 25 -0
v -11 25 -1
v -11 26 2
v -11 26 1
v -11 26 -0
v -11 26 -1
v -11 27 1
v -11 27 -0
v -8 26 2
v -8 26 1
v -8 26 -0
v -8 26 -1
v -8 27 2
v -8 27 1
v -8 27 -0
v -8 27 -1
v -8 28 1
v -8 28 -0
v -5 27 2
v -5 27 1
v -5 27 -0
v -5 27 -1
v -5 28 2
v -5 28 1
v -5 28 -0
v -5 28 -1
v -5 29 1
v -5 29 -0
v -4 28 2
v -4 28 1
v -4 28 -0
v -4 28 -1
v -4 29 2
v -4 29 1
v -4 29 -0
v -4 29 -1
v -4 30 1
v -4 30 -0
v -2 0 1
v -2 0 -0
v -2 1 1
v -2 1 -0
v -1 0 2
v -1 0 1
v -1 0 -0
v -1 0 -1
v -1 1 2
v -1 1 1
v -1 1 -0
v -1 1 -1
v -1 2 1
v -1 2 -0
v -1 29 2
v -1 29 1
v -1 29 -0
v -1 29 -1
v -1 30 2
v -1 30 1
v -1 30 -0
v -1 30 -1
v 0 1 2
v 0 1 1
v 0 1 -0
v 0 1 -1
v 0 2 2
v 0 2 1
v 0 2 -0
v 0 2 -1
v 0 27 1
v 0 27 -0
v 0 30 1
v 0 30 -0
v 0 31 1
v 0 31 -0
v 1 2 2
v 1 2 1
v 1 2 -0
v 1 2 -1
v 1 27 2
v 1 27 1
v 1 27 -0
v 1 27 -1
v 7 26 2
v 7 26 -1
v 7 27 2
v 7 27 -1
v 11 25 2
v 11 25 -1
v 11 26 2
v 11 26 -1
v -8 25 2
v -8 25 -1
v -8 26 2
v -8 26 -1
v -4 26 2
v -4 26 -1
v -4 27 2
v -4 27 -1
v 2 0 2
v 2 0 -1
v 2 1 1
v 2 1 -0
v 2 27 2
v 2 27 1
v 2 27 -0
v 2 27 -1
v 3 1 1
v 3 1 -0
v 3 27 1
v 3 27 -0
v 3 30 1
v 3 30 -0
v 3 31 1
v 3 31 -0
v 4 29 2
v 4 29 1
v 4 29 -0
v 4 29 -1
v 4 30 2
v 4 30 1
v 4 30 -0
v 4 30 -1
v 7 28 2
v 7 28 1
v 7 28 -0
v 7 28 -1
v 7 29 2
v 7 29 1
v 7 29 -0
v 7 29 -1
v 7 30 1
v 7 30 -0
v 8 27 2
v 8 27 1
v 8 27 -0
v 8 27 -1
v 8 28 2
v 8 28 1
v 8 28 -0
v 8 28 -1
v 8 29 1
v 8 29 -0
v 11 26 -0
v 11 26 -1
v 11 27 1
v 11 27 -0
v 11 27 -1
v 11 28 1
v 11 28 -0
v 12 26 2
v 12 26 1
v 12 27 2
v 12 27 1
v 14 25 2
v 14 25 1
v 14 25 -0
v 14 25 -1
v 14 26 2
v 14 26 1
v 14 26 -0
v 14 26 -1
v 14 27 1
v 14 27 -0
v 15 25 1
v 15 25 -0
v 15 26 1
v 15 26 -0
v -11 25 2
v -11 26 2
v -8 25 2
v -8 26 2
v -8 27 2
v -5 27 2
v -5 28 2
v -4 26 2
v -4 27 2
v -4 28 2
v -4 29 2
v -1 0 2
v -1 1 2
v -1 29 2
v -1 30 2
v 0 1 2
v 0 2 2
v 1 2 2
v 1 27 2
v 2 0 2
v 2 27 2
v 4 29 2
v 4 30 2
v 7 26 2
v 7 27 2
v 7 28 2
v 7 29 2
v 8 27 2
v 8 28 2
v 11 25 2
v 11 26 2
v 12 26 2
v 12 27 2
v 14 25 2
v 14 26 2
v -12 25 1
v -12 26 1
v -11 25 1
v -11 26 1
v -11 27 1
v -8 26 1
v -8 27 1
v -8 28 1
v -5 27 1
v -5 28 1
v -5 29 1
v -4 28 1
v -4 29 1
v -4 30 1
v -2 0 1
v -2 1 1
v -1 0 1
v -1 1 1
v -1 2 1
v -1 29 1
v -1 30 1
v 0 1 1
v 0 2 1
v 0 27 1
v 0 30 1
v 0 31 1
v 1 2 1
v 1 27 1
v 2 1 1
v 2 27 1
v 3 1 1
v 3 27 1
v 3 30 1
v 3 31 1
v 4 29 1
v 4 30 1
v 7 28 1
v 7 29 1
v 7 30 1
v 8 27 1
v 8 28 1
v 8 29 1
v 11 27 1
v 11 28 1
v 12 26 1
v 12 27 1
v 14 25 1
v 14 26 1
v 14 27 1
v 15 25 1
v 15 26 1
v -12 25 -0
v -12 26 -0
v -11 25 -0
v -11 26 -0
v -11 27 -0
v -8 26 -0
v -8 27 -0
v -8 28 -0
v -5 27 -0
v -5 28 -0
v -5 29 -0
v -4 28 -0
v -4 29 -0
v -4 30 -0
v -2 0 -0
v -2 1 -0
v -1 0 -0
v -1 1 -0
v -1 2 -0
v -1 29 -0
v -1 30 -0
v 0 1 -0
v 0 2 -0
v 0 27 -0
v 0 30 -0
v 0 31 -0
v 1 2 -0
v 1 27 -0
v 2 1 -0
v 2 27 -0
v 3 1 -0
v 3 27 -0
v 3 30 -0
v 3 31 -0
v 4 29 -0
v 4 30 -0
v 7 28 -0
v 7 29 -0
v 7 30 -0
v 8 27 -0
v 8 28 -0
v 8 29 -0
v 11 26 -0
v 11 27 -0
v 11 28 -0
v 14 25 -0
v 14 26 -0
v 14 27 -0
v 15 25 -0
v 15 26 -0
v -11 25 -1
v -11 26 -1
v -8 25 -1
v -8 26 -1
v -8 27 -1
v -5 27 -1
v -5 28 -1
v -4 26 -1
v -4 27 -1
v -4 28 -1
v -4 29 -1
v -1 0 -1
v -1 1 -1
v -1 29 -1
v -1 30 -1
v 0 1 -1
v 0 2 -1
v 1 2 -1
v 1 27 -1
v 2 0 -1
v 2 27 -1
v 4 29 -1
v 4 30 -1
v 7 26 -1
v 7 27 -1
v 7 28 -1
v 7 29 -1
v 8 27 -1
v 8 28 -1
v 11 25 -1
v 11 26 -1
v 11 27 -1
v 14 25 -1
v 14 26 -1
v -1 0 2
v 2 0 2
v -2 0 1
v -1 0 1
v -2 0 -0
v -1 0 -0
v -1 0 -1
v 2 0 -1
v 2 1 1
v 3 1 1
v 2 1 -0
v 3 1 -0
v -11 25 2
v -8 25 2
v 11 25 2
v 14 25 2
v -12 25 1
v -11 25 1
v 14 25 1
v 15 25 1
v -12 25 -0
v -11 25 -0
v 14 25 -0
v 15 25 -0
v -11 25 -1
v -8 25 -1
v 11 25 -1
v 14 25 -1
v -8 26 2
v -4 26 2
v 7 26 2
v 11 26 2
v -8 26 -1
v -4 26 -1
v 7 26 -1
v 11 26 -1
v -4 27 2
v 1 27 2
v 2 27 2
v 7 27 2
v 0 27 1
v 1 27 1
v 2 27 1
v 3 27 1
v 0 27 -0
v 1 27 -0
v 2 27 -0
v 3 27 -0
v -4 27 -1
v 1 27 -1
v 2 27 -1
v 7 27 -1
v -1 1 2
v 0 1 2
v -2 1 1
v -1 1 1
v 0 1 1
v -2 1 -0
v -1 1 -0
v 0 1 -0
v -1 1 -1
v 0 1 -1
v 0 2 2
v 1 2 2
v -1 2 1
v 0 2 1
v 1 2 1
v -1 2 -0
v 0 2 -0
v 1 2 -0
v 0 2 -1
v 1 2 -1
v -11 26 2
v -8 26 2
v 12 26 2
v 14 26 2
v -12 26 1
v -11 26 1
v -8 26 1
v 12 26 1
v 14 26 1
v 15 26 1
v -12 26 -0
v -11 26 -0
v -8 26 -0
v 11 26 -0
v 14 26 -0
v 15 26 -0
v -11 26 -1
v -8 26 -1
v 11 26 -1
v 14 26 -1
v -8 27 2
v -5 27 2
v 8 27 2
v 12 27 2
v -11 27 1
v -8 27 1
v -5 27 1
v 8 27 1
v 11 27 1
v 12 27 1
v 14 27 1
v -11 27 -0
v -8 27 -0
v -5 27 -0
v 8 27 -0
v 11 27 -0
v 14 27 -0
v -8 27 -1
v -5 27 -1
v 8 27 -1
v 11 27 -1
v -5 28 2
v -4 28 2
v 7 28 2
v 8 28 2
v -8 28 1
v -5 28 1
v -4 28 1
v 7 28 1
v 8 28 1
v 11 28 1
v -8 28 -0
v -5 28 -0
v -4 28 -0
v 7 28 -0
v 8 28 -0
v 11 28 -0
v -5 28 -1
v -4 28 -1
v 7 28 -1
v 8 28 -1
v -4 29 2
v -1 29 2
v 4 29 2
v 7 29 2
v -5 29 1
v -4 29 1
v -1 29 1
v 4 29 1
v 7 29 1
v 8 29 1
v -5 29 -0
v -4 29 -0
v -1 29 -0
v 4 29 -0
v 7 29 -0
v 8 29 -0
v -4 29 -1
v -1 29 -1
v 4 29 -1
v 7 29 -1
v -1 30 2
v 4 30 2
v -4 30 1
v -1 30 1
v 0 30 1
v 3 30 1
v 4 30 1
v 7 30 1
v -4 30 -0
v -1 30 -0
v 0 30 -0
v 3 30 -0
v 4 30 -0
v 7 30 -0
v -1 30 -1
v 4 30 -1
v 0 31 1
v 3 31 1
v 0 31 -0
v 3 31 -0

# faces
f 3/2/1 2/2/1 1/2/1
f 4/2/1 2/2/1 3/2/1
f 9/2/1 6/2/1 5/2/1
f 10/2/1 6/2/1 9/2/1
f 11/2/1 8/2/1 7/2/1
f 12/2/1 8/2/1 11/2/1
f 13/2/1 11/2/1 10/2/1
f 14/2/1 11/2/1 13/2/1
f 19/2/1 16/2/1 15/2/1
f 20/2/1 16/2/1 19/2/1
f 21/2/1 18/2/1 17/2/1
f 22/2/1 18/2/1 21/2/1
f 23/2/1 21/2/1 20/2/1
f 24/2/1 21/2/1 23/2/1
f 29/2/1 26/2/1 25/2/1
f 30/2/1 26/2/1 29/2/1
f 31/2/1 28/2/1 27/2/1
f 32/2/1 28/2/1 31/2/1
f 33/2/1 31/2/1 30/2/1
f 34/2/1 31/2/1 33/2/1
f 39/2/1 36/2/1 35/2/1
f 40/2/1 36/2/1 39/2/1
f 41/2/1 38/2/1 37/2/1
f 42/2/1 38/2/1 41/2/1
f 43/2/1 41/2/1 40/2/1
f 44/2/1 41/2/1 43/2/1
f 47/1/1 46/1/1 45/1/1
f 48/1/1 46/1/1 47/1/1
f 53/1/1 50/1/1 49/1/1
f 54/1/1 50/1/1 53/1/1
f 55/1/1 52/1/1 51/1/1
f 56/1/1 52/1/1 55/1/1
f 57/1/1 55/1/1 54/1/1
f 58/1/1 55/1/1 57/1/1
f 63/2/1 60/2/1 59/2/1
f 64/2/1 60/2/1 63/2/1
f 65/2/1 62/2/1 61/2/1
f 66/2/1 62/2/1 65/2/1
f 71/1/1 68/1/1 67/1/1
f 72/1/1 68/1/1 71/1/1
f 73/1/1 70/1/1 69/1/1
f 74/1/1 70/1/1 73/1/1
f 75/1/1 73/1/1 72/1/1
f 76/1/1 73/1/1 75/1/1
f 79/1/1 78/1/1 77/1/1
f 80/1/1 78/1/1 79/1/1
f 85/1/1 82/1/1 81/1/1
f 86/1/1 82/1/1 85/1/1
f 87/1/1 84/1/1 83/1/1
f 88/1/1 84/1/1 87/1/1
f 91/2/1 90/2/1 89/2/1
f 92/2/1 90/2/1 91/2/1
f 95/2/1 94/2/1 93/2/1
f 96/2/1 94/2/1 95/2/1
f 97/2/2 98/2/2 99/2/2
f 99/2/2 98/2/2 100/2/2
f 101/2/2 102/2/2 103/2/2
f 103/2/2 102/2/2 104/2/2
f 105/1/2 106/1/2 107/1/2
f 107/1/2 106/1/2 108/1/2
f 105/1/2 107/1/2 109/1/2
f 109/1/2 107/1/2 110/1/2
f 108/1/2 106/1/2 111/1/2
f 111/1/2 106/1/2 112/1/2
f 113/1/2 114/1/2 115/1/2
f 115/1/2 114/1/2 116/1/2
f 117/1/2 118/1/2 119/1/2
f 119/1/2 118/1/2 120/1/2
f 121/2/2 122/2/2 125/2/2
f 125/2/2 122/2/2 126/2/2
f 123/2/2 124/2/2 127/2/2
f 127/2/2 124/2/2 128/2/2
f 129/2/2 130/2/2 133/2/2
f 133/2/2 130/2/2 134/2/2
f 131/2/2 132/2/2 135/2/2
f 135/2/2 132/2/2 136/2/2
f 134/2/2 135/2/2 137/2/2
f 137/2/2 135/2/2 138/2/2
f 139/2/2 140/2/2 143/2/2
f 143/2/2 140/2/2 144/2/2
f 141/2/2 142/2/2 145/2/2
f 145/2/2 142/2/2 146/2/2
f 144/2/2 145/2/2 147/2/2
f 147/2/2 145/2/2 148/2/2
f 149/2/2 150/2/2 152/2/2
f 152/2/2 150/2/2 153/2/2
f 151/2/2 152/2/2 154/2/2
f 154/2/2 152/2/2 155/2/2
f 156/2/2 157/2/2 158/2/2
f 158/2/2 157/2/2 159/2/2
f 160/2/2 161/2/2 164/2/2
f 164/2/2 161/2/2 165/2/2
f 162/2/2 163/2/2 166/2/2
f 166/2/2 163/2/2 167/2/2
f 165/2/2 166/2/2 168/2/2
f 168/2/2 166/2/2 169/2/2
f 170/2/2 171/2/2 172/2/2
f 172/2/2 171/2/2 173/2/2
f 176/2/3 175/2/3 174/2/3
f 177/2/3 175/2/3 176/2/3
f 179/2/3 178/2/3 177/2/3
f 181/2/3 179/2/3 177/2/3
f 181/2/3 180/2/3 179/2/3
f 182/2/3 180/2/3 181/2/3
f 183/2/3 180/2/3 182/2/3
f 187/2/3 184/2/3 183/2/3
f 187/2/3 183/2/3 182/2/3
f 189/1/3 186/1/3 185/1/3
f 191/1/3 190/1/3 189/1/3
f 192/2/3 188/2/3 187/2/3
f 192/2/3 187/2/3 182/2/3
f 193/1/3 191/1/3 189/1/3
f 193/1/3 192/1/3 191/1/3
f 193/1/3 189/1/3 185/1/3
f 194/2/3 188/2/3 192/2/3
f 194/1/3 192/1/3 193/1/3
f 195/2/3 188/2/3 194/2/3
f 196/2/3 188/2/3 195/2/3
f 198/2/3 195/2/3 194/2/3
f 199/2/3 195/2/3 198/2/3
f 200/2/3 195/2/3 199/2/3
f 201/2/3 198/2/3 197/2/3
f 201/2/3 199/2/3 198/2/3
f 202/2/3 199/2/3 201/2/3
f 204/2/3 201/2/3 197/2/3
f 205/2/3 201/2/3 204/2/3
f 205/2/3 204/2/3 203/2/3
f 206/2/3 201/2/3 205/2/3
f 207/2/3 205/2/3 203/2/3
f 208/2/3 205/2/3 207/2/3
f 211/2/3 210/2/3 209/2/3
f 212/2/3 210/2/3 211/2/3
f 214/2/3 213/2/3 212/2/3
f 215/2/3 213/2/3 214/2/3
f 217/2/3 216/2/3 215/2/3
f 218/2/3 216/2/3 217/2/3
f 220/2/3 219/2/3 218/2/3
f 221/2/3 219/2/3 220/2/3
f 225/1/3 224/1/3 223/1/3
f 226/1/3 224/1/3 225/1/3
f 228/2/3 222/2/3 221/2/3
f 229/2/3 222/2/3 228/2/3
f 230/1/3 227/1/3 226/1/3
f 231/1/3 227/1/3 230/1/3
f 235/1/3 232/1/3 231/1/3
f 236/1/3 232/1/3 235/1/3
f 239/1/3 238/1/3 237/1/3
f 240/1/3 238/1/3 239/1/3
f 241/1/3 234/1/3 233/1/3
f 242/1/3 234/1/3 241/1/3
f 246/2/3 244/2/3 243/2/3
f 247/2/3 244/2/3 246/2/3
f 249/2/3 246/2/3 245/2/3
f 250/2/3 246/2/3 249/2/3
f 251/2/3 249/2/3 248/2/3
f 252/2/3 249/2/3 251/2/3
f 256/2/3 254/2/3 253/2/3
f 257/2/3 254/2/3 256/2/3
f 258/2/3 256/2/3 255/2/3
f 259/2/3 256/2/3 258/2/3
f 260/2/4 261/2/4 262/2/4
f 262/2/4 261/2/4 263/2/4
f 263/2/4 264/2/4 265/2/4
f 265/2/4 264/2/4 266/2/4
f 266/2/4 267/2/4 268/2/4
f 268/2/4 267/2/4 269/2/4
f 269/2/4 270/2/4 271/2/4
f 271/2/4 270/2/4 272/2/4
f 274/1/4 275/1/4 276/1/4
f 276/1/4 275/1/4 277/1/4
f 272/2/4 273/2/4 279/2/4
f 279/2/4 273/2/4 280/2/4
f 277/1/4 278/1/4 281/1/4
f 281/1/4 278/1/4 282/1/4
f 282/1/4 283/1/4 286/1/4
f 286/1/4 283/1/4 287/1/4
f 288/1/4 289/1/4 290/1/4
f 290/1/4 289/1/4 291/1/4
f 284/1/4 285/1/4 292/1/4
f 292/1/4 285/1/4 293/1/4
f 294/2/4 295/2/4 297/2/4
f 297/2/4 295/2/4 298/2/4
f 296/2/4 297/2/4 300/2/4
f 300/2/4 297/2/4 301/2/4
f 299/2/4 300/2/4 303/2/4
f 303/2/4 300/2/4 304/2/4
f 302/2/4 303/2/4 306/2/4
f 306/2/4 303/2/4 307/2/4
f 305/2/4 306/2/4 308/2/4
f 308/2/4 306/2/4 309/2/4
f 310/2/4 311/2/4 312/2/4
f 312/2/4 311/2/4 313/2/4
f 313/2/4 314/2/4 315/2/4
f 313/2/4 315/2/4 317/2/4
f 315/2/4 316/2/4 317/2/4
f 317/2/4 316/2/4 318/2/4
f 318/2/4 316/2/4 319/2/4
f 319/2/4 320/2/4 323/2/4
f 318/2/4 319/2/4 323/2/4
f 321/1/4 322/1/4 325/1/4
f 325/1/4 326/1/4 327/1/4
f 323/2/4 324/2/4 328/2/4
f 318/2/4 323/2/4 328/2/4
f 325/1/4 327/1/4 329/1/4
f 327/1/4 328/1/4 329/1/4
f 321/1/4 325/1/4 329/1/4
f 328/2/4 324/2/4 330/2/4
f 329/1/4 328/1/4 330/1/4
f 330/2/4 324/2/4 331/2/4
f 331/2/4 324/2/4 332/2/4
f 330/2/4 331/2/4 334/2/4
f 334/2/4 331/2/4 335/2/4
f 335/2/4 331/2/4 336/2/4
f 333/2/4 334/2/4 337/2/4
f 334/2/4 335/2/4 337/2/4
f 337/2/4 335/2/4 338/2/4
f 333/2/4 337/2/4 340/2/4
f 340/2/4 337/2/4 341/2/4
f 339/2/4 340/2/4 342/2/4
f 342/2/4 340/2/4 343/2/4
f 347/1/5 345/1/5 344/1/5
f 348/1/5 347/1/5 346/1/5
f 349/1/5 345/1/5 347/1/5
f 349/1/5 347/1/5 348/1/5
f 350/1/5 345/1/5 349/1/5
f 351/1/5 345/1/5 350/1/5
f 354/1/5 353/1/5 352/1/5
f 355/1/5 353/1/5 354/1/5
f 361/2/5 357/2/5 356/2/5
f 362/2/5 359/2/5 358/2/5
f 364/2/5 361/2/5 360/2/5
f 365/2/5 357/2/5 361/2/5
f 365/2/5 361/2/5 364/2/5
f 366/2/5 363/2/5 362/2/5
f 366/2/5 362/2/5 358/2/5
f 367/2/5 363/2/5 366/2/5
f 368/2/5 357/2/5 365/2/5
f 369/2/5 357/2/5 368/2/5
f 370/2/5 366/2/5 358/2/5
f 371/2/5 366/2/5 370/2/5
f 376/2/5 373/2/5 372/2/5
f 377/2/5 373/2/5 376/2/5
f 378/2/5 375/2/5 374/2/5
f 379/2/5 375/2/5 378/2/5
f 384/2/5 381/2/5 380/2/5
f 385/2/5 381/2/5 384/2/5
f 386/2/5 383/2/5 382/2/5
f 387/2/5 383/2/5 386/2/5
f 388/2/5 384/2/5 380/2/5
f 391/2/5 383/2/5 387/2/5
f 392/2/5 389/2/5 388/2/5
f 392/2/5 388/2/5 380/2/5
f 393/2/5 389/2/5 392/2/5
f 394/2/5 391/2/5 390/2/5
f 395/2/5 383/2/5 391/2/5
f 395/2/5 391/2/5 394/2/5
f 396/1/6 397/1/6 399/1/6
f 399/1/6 397/1/6 400/1/6
f 398/1/6 399/1/6 401/1/6
f 401/1/6 399/1/6 402/1/6
f 402/1/6 403/1/6 404/1/6
f 404/1/6 403/1/6 405/1/6
f 406/1/6 407/1/6 409/1/6
f 409/1/6 407/1/6 410/1/6
f 408/1/6 409/1/6 411/1/6
f 411/1/6 409/1/6 412/1/6
f 412/1/6 413/1/6 414/1/6
f 414/1/6 413/1/6 415/1/6
f 416/2/6 417/2/6 421/2/6
f 421/2/6 417/2/6 422/2/6
f 418/2/6 419/2/6 423/2/6
f 423/2/6 419/2/6 424/2/6
f 420/2/6 421/2/6 426/2/6
f 426/2/6 421/2/6 427/2/6
f 424/2/6 425/2/6 430/2/6
f 430/2/6 425/2/6 431/2/6
f 427/2/6 428/2/6 432/2/6
f 432/2/6 428/2/6 433/2/6
f 429/2/6 430/2/6 434/2/6
f 434/2/6 430/2/6 435/2/6
f 436/2/6 437/2/6 441/2/6
f 441/2/6 437/2/6 442/2/6
f 438/2/6 439/2/6 443/2/6
f 443/2/6 439/2/6 444/2/6
f 444/2/6 439/2/6 445/2/6
f 440/2/6 441/2/6 447/2/6
f 447/2/6 441/2/6 448/2/6
f 445/2/6 446/2/6 451/2/6
f 444/2/6 445/2/6 451/2/6
f 451/2/6 446/2/6 452/2/6
f 448/2/6 449/2/6 453/2/6
f 453/2/6 449/2/6 454/2/6
f 450/2/6 451/2/6 455/2/6
f 455/2/6 451/2/6 456/2/6
f 457/2/6 458/2/6 462/2/6
f 462/2/6 458/2/6 463/2/6
f 459/2/6 460/2/6 464/2/6
f 464/2/6 460/2/6 465/2/6
f 461/2/6 462/2/6 467/2/6
f 467/2/6 462/2/6 468/2/6
f 465/2/6 466/2/6 471/2/6
f 471/2/6 466/2/6 472/2/6
f 468/2/6 469/2/6 473/2/6
f 473/2/6 469/2/6 474/2/6
f 470/2/6 471/2/6 475/2/6
f 475/2/6 471/2/6 476/2/6
f 477/2/6 478/2/6 482/2/6
f 482/2/6 478/2/6 483/2/6
f 479/2/6 480/2/6 484/2/6
f 484/2/6 480/2/6 485/2/6
f 481/2/6 482/2/6 487/2/6
f 487/2/6 482/2/6 488/2/6
f 485/2/6 486/2/6 491/2/6
f 491/2/6 486/2/6 492/2/6
f 488/2/6 489/2/6 493/2/6
f 493/2/6 489/2/6 494/2/6
f 490/2/6 491/2/6 495/2/6
f 495/2/6 491/2/6 496/2/6
f 497/2/6 498/2/6 500/2/6
f 500/2/6 498/2/6 501/2/6
f 501/2/6 498/2/6 502/2/6
f 502/2/6 498/2/6 503/2/6
f 499/2/6 500/2/6 505/2/6
f 500/2/6 501/2/6 505/2/6
f 505/2/6 501/2/6 506/2/6
f 506/2/6 501/2/6 507/2/6
f 503/2/6 504/2/6 508/2/6
f 502/2/6 503/2/6 508/2/6
f 508/2/6 504/2/6 509/2/6
f 509/2/6 504/2/6 510/2/6
f 506/2/6 507/2/6 511/2/6
f 508/2/6 509/2/6 511/2/6
f 507/2/6 508/2/6 511/2/6
f 511/2/6 509/2/6 512/2/6
f 513/1/6 514/1/6 515/1/6
f 515/1/6 514/1/6 516/1/6
